<?xml version="1.0" standalone="no"?>
<!DOCTYPE svg PUBLIC "-//W3C//DTD SVG 20010904//EN"
 "http://www.w3.org/TR/2001/REC-SVG-20010904/DTD/svg10.dtd">
<svg version="1.0" xmlns="http://www.w3.org/2000/svg"
 width="279.000000pt" height="275.000000pt" viewBox="0 0 279.000000 275.000000"
 preserveAspectRatio="xMidYMid meet">

<g transform="translate(0.000000,275.000000) scale(0.100000,-0.100000)"
fill="#000000" stroke="none">
<path d="M1205 2680 c-195 -27 -409 -111 -583 -227 -108 -72 -273 -235 -341
-338 -126 -190 -204 -402 -232 -628 -27 -216 28 -513 133 -722 28 -55 116
-189 171 -258 l22 -28 -28 -132 c-47 -229 -48 -229 168 -159 l151 48 49 -29
c116 -69 323 -141 464 -162 417 -63 846 69 1144 354 233 222 369 501 407 836
50 428 -159 905 -512 1173 -166 126 -352 212 -547 254 -107 23 -363 33 -466
18z m433 -46 c259 -53 474 -167 664 -352 249 -241 381 -532 395 -872 14 -332
-91 -635 -311 -892 -191 -224 -466 -381 -761 -435 -123 -23 -361 -22 -478 1
-148 29 -391 127 -463 187 -9 7 -55 -4 -163 -41 -84 -28 -155 -49 -160 -46 -4
3 6 72 22 154 l31 148 -75 100 c-112 149 -194 328 -235 516 -24 111 -30 343
-11 453 50 286 162 503 365 712 103 104 278 226 400 278 113 47 285 95 383
105 108 11 304 3 397 -16z"/>
<path d="M901 2057 c-53 -17 -125 -94 -147 -157 -24 -72 -24 -228 0 -325 23
-92 101 -254 172 -360 108 -161 321 -340 508 -429 39 -19 116 -48 171 -67 90
-29 112 -33 220 -33 102 -1 127 2 166 20 194 90 234 316 74 422 -68 44 -195
92 -245 92 -54 0 -86 -18 -145 -82 -75 -81 -78 -82 -155 -43 -96 49 -221 153
-284 237 -56 75 -95 149 -96 181 0 10 27 44 59 75 33 32 63 70 67 86 9 38 -58
241 -100 304 -55 81 -160 113 -265 79z m169 -42 c16 -8 40 -30 53 -47 28 -37
107 -238 107 -270 0 -13 -24 -45 -60 -80 -67 -66 -78 -93 -62 -146 42 -140
224 -328 400 -417 85 -43 116 -34 197 54 58 63 100 84 141 72 55 -16 209 -94
237 -120 55 -50 59 -143 9 -219 -71 -106 -190 -147 -347 -117 -261 49 -510
192 -694 398 -182 205 -291 463 -279 661 8 116 47 184 133 229 38 21 127 21
165 2z"/>
</g>
</svg>
