<?xml version="1.0" standalone="no"?>
<!DOCTYPE svg PUBLIC "-//W3C//DTD SVG 20010904//EN"
 "http://www.w3.org/TR/2001/REC-SVG-20010904/DTD/svg10.dtd">
<svg version="1.0" xmlns="http://www.w3.org/2000/svg"
 width="278.000000pt" height="278.000000pt" viewBox="0 0 278.000000 278.000000"
 preserveAspectRatio="xMidYMid meet">

<g transform="translate(0.000000,278.000000) scale(0.100000,-0.100000)"
fill="#000000" stroke="none">
<path d="M1193 2689 c-279 -40 -570 -189 -767 -393 -172 -176 -281 -372 -342
-611 -35 -137 -44 -385 -20 -531 98 -577 577 -1030 1166 -1103 565 -71 1124
224 1373 724 106 214 141 358 140 590 0 237 -34 387 -135 593 -156 319 -474
589 -808 685 -185 54 -426 72 -607 46z m462 -43 c264 -57 487 -178 675 -366
244 -244 364 -516 377 -856 13 -334 -70 -586 -284 -861 -184 -237 -481 -412
-797 -470 -132 -24 -360 -21 -493 6 -246 51 -456 161 -640 335 -257 243 -392
538 -410 896 -13 261 65 529 224 769 108 163 308 337 494 431 114 58 312 117
449 134 72 9 337 -3 405 -18z"/>
<path d="M1150 2100 c-313 -23 -421 -105 -464 -352 -34 -195 -29 -620 9 -785
38 -165 129 -251 308 -290 57 -13 137 -16 382 -17 347 -1 424 7 522 55 106 51
160 119 195 244 21 75 22 101 22 420 1 294 -1 349 -17 409 -47 186 -153 278
-350 305 -106 15 -469 21 -607 11z m540 -40 c126 -13 184 -31 250 -77 69 -49
114 -131 137 -253 21 -106 24 -564 5 -680 -33 -204 -113 -299 -283 -337 -97
-22 -664 -25 -774 -5 -135 26 -217 83 -266 185 -45 96 -54 173 -54 487 0 318
8 389 56 487 58 120 151 172 339 192 120 12 477 13 590 1z"/>
<path d="M1772 1863 c-19 -7 -44 -62 -37 -82 16 -52 85 -71 117 -31 46 57 -12
141 -80 113z"/>
<path d="M1258 1717 c-153 -65 -236 -198 -226 -363 11 -170 143 -309 316 -334
159 -22 321 66 388 212 24 54 28 76 28 148 1 105 -28 175 -101 248 -75 75
-147 106 -257 109 -78 3 -99 0 -148 -20z m289 -50 c165 -85 225 -272 141 -440
-26 -53 -88 -111 -150 -144 -44 -23 -66 -27 -133 -28 -71 0 -88 4 -147 33
-128 63 -194 173 -186 312 8 133 87 239 215 286 63 23 196 14 260 -19z"/>
</g>
</svg>
