<?xml version="1.0" standalone="no"?>
<!DOCTYPE svg PUBLIC "-//W3C//DTD SVG 20010904//EN"
 "http://www.w3.org/TR/2001/REC-SVG-20010904/DTD/svg10.dtd">
<svg version="1.0" xmlns="http://www.w3.org/2000/svg"
 width="280.000000pt" height="280.000000pt" viewBox="0 0 280.000000 280.000000"
 preserveAspectRatio="xMidYMid meet">

<g transform="translate(0.000000,280.000000) scale(0.100000,-0.100000)"
fill="#000000" stroke="none">
<path d="M1244 2689 c-141 -18 -282 -60 -401 -119 -148 -74 -220 -121 -330
-218 -210 -186 -368 -473 -418 -759 -22 -126 -20 -347 5 -469 54 -271 172
-494 360 -683 308 -310 739 -452 1170 -386 430 65 802 335 994 720 92 184 132
333 142 535 28 542 -279 1037 -789 1274 -204 95 -494 137 -733 105z m422 -44
c93 -18 265 -75 341 -113 186 -95 393 -273 500 -432 153 -228 223 -455 223
-726 0 -171 -13 -265 -55 -390 -69 -209 -168 -368 -324 -525 -221 -221 -480
-343 -801 -379 -241 -27 -531 27 -729 137 -322 179 -525 412 -639 735 -50 142
-66 243 -66 423 0 174 13 259 63 408 146 429 526 763 978 858 147 30 362 32
509 4z"/>
<path d="M1985 2050 c-29 -7 -179 -71 -535 -230 -241 -107 -484 -214 -684
-301 -187 -81 -212 -102 -202 -168 9 -60 28 -76 138 -116 57 -21 160 -60 229
-86 l126 -49 23 -143 c12 -78 24 -165 27 -194 6 -56 21 -77 46 -67 15 5 150
151 180 194 10 15 20 19 29 14 7 -4 84 -55 172 -112 122 -81 167 -106 200
-109 47 -4 80 10 109 48 21 30 22 32 77 354 22 127 68 381 101 566 55 301 60
340 48 364 -17 33 -43 44 -84 35z m-79 -123 c-84 -77 -101 -107 -62 -107 18 0
166 155 166 174 0 20 19 21 26 1 4 -9 -6 -82 -20 -163 -14 -81 -63 -354 -107
-607 -71 -407 -83 -463 -103 -484 -35 -34 -87 -31 -145 10 -25 17 -116 79
-201 137 -85 58 -178 123 -207 144 -80 58 -82 57 -104 -62 -20 -110 -29 -98
-45 60 l-6 65 48 44 c27 24 126 117 219 206 94 89 199 188 235 220 36 32 73
67 82 79 20 23 23 46 8 46 -13 0 -160 -132 -403 -362 -109 -104 -203 -188
-208 -188 -28 0 -437 155 -456 173 -13 11 -23 32 -23 47 0 38 32 62 140 108
120 50 461 200 690 302 408 183 536 238 550 239 8 1 -25 -36 -74 -82z m-645
-948 c68 -48 71 -36 -38 -154 -86 -93 -96 -87 -70 41 9 45 17 98 17 118 0 48
16 47 91 -5z"/>
</g>
</svg>
