<?xml version="1.0" standalone="no"?>
<!DOCTYPE svg PUBLIC "-//W3C//DTD SVG 20010904//EN"
 "http://www.w3.org/TR/2001/REC-SVG-20010904/DTD/svg10.dtd">
<svg version="1.0" xmlns="http://www.w3.org/2000/svg"
 width="1080.000000pt" height="893.000000pt" viewBox="0 0 1080.000000 893.000000"
 preserveAspectRatio="xMidYMid meet">

<g transform="translate(0.000000,893.000000) scale(0.100000,-0.100000)"
fill="#000000" stroke="none">
<path d="M5495 7884 c-29 -32 -30 -37 -9 -59 43 -42 109 21 68 66 -23 25 -30
24 -59 -7z"/>
<path d="M6856 7368 c-3 -18 -13 -76 -22 -128 -24 -141 -29 -194 -16 -186 6 3
13 25 17 49 4 23 18 90 31 149 13 59 24 116 24 127 0 34 -29 25 -34 -11z"/>
<path d="M4561 7349 c-61 -65 -78 -185 -40 -269 l20 -44 -28 -20 c-37 -26
-118 -109 -168 -170 -22 -27 -45 -54 -52 -61 -6 -7 -20 -26 -30 -43 -24 -39
-38 -30 -46 29 -12 88 -58 189 -86 189 -15 0 -51 -102 -60 -167 -11 -85 1
-197 28 -258 10 -23 15 -47 10 -55 -19 -38 -39 -89 -39 -102 0 -8 -9 -41 -20
-74 -24 -74 -50 -260 -50 -362 0 -72 -11 -108 -40 -132 -12 -10 -106 -166
-129 -214 -42 -88 -71 -171 -106 -311 -8 -33 -22 -80 -30 -105 -8 -25 -26
-121 -39 -215 -25 -171 -28 -288 -11 -487 18 -203 90 -444 179 -593 19 -33 40
-71 47 -85 55 -124 152 -271 232 -353 17 -17 16 -18 -20 -33 -169 -71 -260
-125 -378 -224 -97 -83 -121 -109 -192 -213 -67 -98 -119 -205 -105 -219 6 -6
23 16 45 62 115 229 282 393 527 515 41 21 86 45 100 55 48 32 57 31 112 -16
61 -53 198 -147 248 -170 8 -4 31 -17 50 -29 78 -48 367 -160 455 -176 28 -6
70 -16 95 -24 42 -13 119 -26 230 -40 48 -6 304 -7 383 -2 47 4 48 3 43 -22
-3 -14 -12 -66 -21 -116 -8 -49 -27 -121 -41 -160 -14 -38 -28 -81 -31 -95 -3
-14 -9 -29 -13 -35 -4 -5 -24 -50 -45 -100 -45 -108 -88 -203 -121 -269 -33
-64 -17 -86 20 -27 14 22 26 44 26 48 0 6 51 119 71 155 5 10 9 23 9 29 0 5
12 36 27 67 70 149 143 392 143 479 0 23 5 45 11 49 7 4 39 13 73 20 286 59
474 147 691 325 88 72 116 102 149 163 l27 49 -28 -7 c-212 -49 -408 -54 -618
-17 -71 13 -134 26 -140 30 -5 4 -37 17 -70 29 -107 41 -105 38 -140 145 -39
117 -103 253 -149 316 -35 49 -86 134 -86 144 0 3 6 12 13 19 77 82 187 220
187 237 0 6 4 11 8 11 5 0 17 18 28 40 10 22 22 40 27 40 4 0 7 7 7 16 0 14 8
16 48 10 89 -12 226 37 292 104 55 56 52 84 -10 88 -62 5 -116 -11 -196 -57
-38 -21 -71 -35 -72 -30 -2 6 3 25 12 43 9 19 16 40 16 48 0 8 4 18 9 24 5 5
16 38 25 74 22 87 35 103 91 118 58 15 112 53 148 103 38 53 36 74 -5 64 -90
-20 -82 -23 -75 26 7 52 -10 109 -33 109 -20 0 -59 -27 -83 -57 l-19 -23 -34
29 c-63 56 -86 15 -61 -109 8 -43 26 -95 41 -118 30 -48 30 -50 -16 -187 -30
-93 -115 -277 -130 -283 -4 -2 -8 -8 -8 -13 0 -30 -206 -287 -231 -289 -4 0
-37 46 -75 103 -69 104 -210 255 -364 387 -148 129 -139 115 -139 216 1 109
23 277 48 364 11 36 22 81 26 100 8 44 61 173 92 222 13 21 23 40 23 43 0 9
84 140 92 143 4 2 8 10 8 17 0 7 3 15 8 17 4 2 25 30 47 63 114 172 395 377
686 500 58 25 119 45 134 45 17 0 25 5 22 13 -2 6 -12 11 -22 9 -9 -2 -33 4
-53 14 -121 57 -279 93 -415 94 -88 0 -244 -15 -327 -32 -88 -17 -212 -48
-255 -63 -22 -8 -87 -30 -144 -50 -144 -50 -352 -153 -465 -231 -52 -35 -98
-69 -101 -74 -3 -6 -12 -10 -19 -10 -7 0 -36 -21 -63 -47 -77 -73 -113 -97
-125 -85 -23 23 31 382 72 478 100 234 239 430 422 593 l27 24 61 -23 c50 -19
74 -22 143 -18 46 3 94 12 110 21 27 14 22 15 -95 14 -132 -2 -178 5 -178 27
0 21 65 39 137 37 56 -1 89 -9 158 -36 41 -17 -13 31 -58 51 -23 10 -43 19
-45 20 -2 1 13 28 33 60 37 63 45 97 20 88 -8 -4 -15 -11 -15 -18 0 -18 -68
-114 -88 -124 -9 -5 -36 -12 -59 -15 -40 -5 -43 -3 -43 18 0 61 12 83 59 109
27 14 71 31 100 37 38 8 50 14 42 22 -13 13 -124 -7 -155 -29 -31 -21 -43 -17
-50 19 -4 17 -17 45 -30 61 l-23 28 -22 -23z m57 -129 c3 -37 -1 -68 -12 -94
-9 -21 -16 -47 -16 -57 0 -27 -15 -23 -36 9 -29 41 -26 162 6 222 l23 45 15
-35 c8 -19 17 -60 20 -90z m-444 -395 c14 -49 25 -109 25 -131 -1 -40 -48
-149 -64 -149 -34 0 -48 246 -19 336 9 28 20 47 25 42 4 -4 19 -48 33 -98z
m1586 -364 c47 -11 109 -28 139 -39 l54 -18 -29 -11 c-16 -6 -51 -19 -79 -28
-160 -56 -469 -257 -585 -381 -87 -93 -236 -316 -311 -464 -59 -117 -124 -393
-133 -559 -3 -63 -9 -118 -14 -123 -15 -15 -434 386 -499 478 l-22 31 25 37
c81 119 109 227 103 403 -2 38 -26 33 -71 -15 -80 -85 -116 -203 -96 -310 5
-30 8 -58 6 -63 -5 -16 -114 150 -148 226 -18 39 -36 79 -41 90 -5 11 -13 42
-19 69 l-11 50 73 73 c122 123 303 251 479 337 249 121 489 195 784 240 67 10
312 -4 395 -23z m-1740 -713 c40 -164 200 -404 417 -623 62 -63 142 -138 286
-269 79 -71 87 -82 87 -115 0 -45 24 -148 51 -220 11 -29 17 -56 14 -59 -3 -3
-28 -6 -55 -6 -28 -1 -50 -4 -50 -8 0 -15 101 -110 132 -123 48 -21 64 -36 72
-67 9 -39 131 -243 179 -302 102 -123 194 -209 301 -279 99 -66 229 -137 250
-137 5 0 22 -6 39 -14 133 -58 214 -81 347 -100 119 -17 313 -14 469 9 l54 7
-20 -28 c-53 -73 -259 -228 -399 -298 -206 -104 -454 -157 -723 -156 -169 0
-415 32 -526 67 -103 32 -171 55 -190 64 -11 5 -45 18 -75 29 -73 28 -151 66
-228 112 -34 21 -67 38 -72 38 -6 0 -10 4 -10 8 0 5 -10 13 -22 19 -77 35
-232 180 -302 281 -48 70 -202 325 -235 390 -105 210 -167 588 -140 862 11
120 52 354 73 426 47 156 70 231 77 244 4 8 22 47 40 85 41 86 130 226 140
220 4 -3 13 -29 19 -57z m359 -111 c-5 -26 -13 -56 -19 -67 -5 -10 -10 -27
-10 -37 0 -10 -14 -43 -32 -73 l-32 -55 -9 35 c-24 91 11 240 71 303 l27 28 6
-43 c4 -24 3 -64 -2 -91z m1589 -511 c2 -74 2 -75 -30 -97 -18 -13 -36 -28
-40 -34 -12 -15 -27 14 -29 53 -1 17 -2 37 -3 43 -1 13 86 118 95 113 3 -2 6
-37 7 -78z m-140 -44 c27 -139 21 -172 -17 -89 -26 59 -34 102 -26 145 6 33 8
35 20 19 7 -9 17 -43 23 -75z m200 -68 c-35 -39 -111 -80 -127 -69 -15 8 47
61 100 85 61 27 64 25 27 -16z m-1109 -339 c168 -147 331 -310 331 -332 0 -12
-4 -12 -27 0 -16 8 -39 19 -53 25 -14 6 -46 20 -72 31 -26 12 -53 21 -61 21
-32 0 -109 34 -122 54 -33 49 -82 227 -69 248 6 9 15 4 73 -47z m1125 -30
c-35 -53 -132 -96 -250 -110 l-59 -7 45 36 c58 46 154 94 211 104 60 11 72 6
53 -23z m-1108 -230 c49 -9 93 -20 98 -25 6 -6 17 -10 25 -10 20 0 141 -60
141 -69 0 -15 -88 -21 -143 -10 -62 11 -159 56 -199 92 -48 42 -45 43 78 22z
m238 -141 c56 9 109 14 117 11 13 -5 81 -103 94 -136 4 -10 -19 -37 -71 -85
-105 -94 -124 -106 -140 -89 -11 11 -42 60 -175 281 l-19 31 46 -15 c41 -13
55 -13 148 2z m306 -266 c83 -123 128 -218 176 -375 l13 -42 -25 9 c-100 39
-250 143 -346 242 -49 49 -88 95 -88 102 0 7 19 24 43 39 24 15 65 47 92 72
28 24 55 44 62 45 6 0 39 -41 73 -92z"/>
<path d="M6619 7152 c18 -33 90 -107 91 -92 0 25 -64 110 -83 110 -14 0 -16
-4 -8 -18z"/>
<path d="M6939 7071 c-62 -42 -79 -57 -79 -70 0 -18 11 -13 74 32 87 62 92 95
5 38z"/>
<path d="M6445 7022 c-19 -19 4 -30 95 -45 100 -17 158 -22 148 -12 -15 15
-233 66 -243 57z"/>
<path d="M6860 6947 c0 -9 37 -18 118 -30 131 -19 178 -21 186 -8 7 11 -14 17
-142 36 -125 19 -162 19 -162 2z"/>
<path d="M6643 6868 c-44 -22 -64 -48 -37 -48 15 0 104 56 104 65 0 11 -27 4
-67 -17z"/>
<path d="M6832 6878 c6 -17 99 -123 121 -137 13 -9 17 -8 17 3 0 21 -108 146
-126 146 -9 0 -14 -5 -12 -12z"/>
<path d="M6768 6874 c-9 -14 -38 -262 -38 -325 0 -27 5 -49 10 -49 6 0 10 3
10 8 0 4 9 71 20 148 13 92 17 156 12 185 -4 24 -11 39 -14 33z"/>
<path d="M2862 6533 c-51 -54 -77 -129 -77 -223 0 -60 5 -84 22 -113 l22 -37
-29 -15 c-17 -9 -37 -26 -46 -40 -20 -31 -33 -163 -19 -198 39 -96 160 -135
252 -82 l43 26 0 -42 c0 -52 32 -122 66 -144 14 -9 50 -19 80 -22 109 -12 219
78 212 174 l-3 41 46 6 c84 11 211 103 251 180 17 34 19 45 9 77 -12 39 -43
66 -90 75 -41 8 -223 -24 -299 -53 -36 -13 -67 -21 -70 -18 -9 8 38 54 106
102 56 40 76 63 55 63 -15 0 -108 -59 -136 -85 -16 -15 -31 -24 -34 -21 -3 3
-9 46 -13 95 -8 87 -21 133 -33 114 -4 -6 -3 -43 2 -84 13 -121 -8 -229 -24
-122 -10 71 -65 205 -113 278 -31 47 -81 95 -98 95 -7 0 -20 3 -29 6 -10 4
-28 -7 -53 -33z m113 -28 c44 -45 118 -197 142 -295 19 -75 17 -174 -4 -189
-4 -3 -14 -17 -22 -31 -27 -49 -96 -128 -126 -143 -52 -28 -77 -29 -124 -5
-68 35 -86 67 -85 147 2 76 19 113 63 134 34 16 37 39 12 97 -24 56 -26 93 -7
170 17 69 41 115 69 135 31 22 42 19 82 -20z m671 -362 c30 -28 28 -65 -6
-113 -46 -64 -164 -135 -243 -146 l-42 -6 0 -57 c-1 -63 -15 -87 -77 -127 -42
-27 -109 -32 -153 -12 -67 30 -84 145 -36 240 55 107 91 141 189 178 48 18 96
36 107 41 28 12 197 36 217 31 10 -2 29 -15 44 -29z"/>
<path d="M6942 5508 c-23 -23 -4 -88 27 -88 24 0 42 28 39 60 -2 29 -7 36 -28
38 -14 2 -31 -3 -38 -10z"/>
<path d="M7241 4595 c-22 -20 -49 -53 -60 -75 -11 -21 -24 -47 -29 -57 -24
-45 -43 -105 -58 -186 -16 -85 -17 -87 -31 -60 -15 29 -18 108 -9 191 l6 47
-16 -35 c-11 -23 -17 -64 -18 -122 l-1 -86 -51 48 c-46 43 -121 87 -131 76 -2
-2 18 -20 44 -39 27 -19 57 -45 67 -56 19 -21 19 -21 -3 -21 -12 0 -35 6 -50
14 -15 8 -78 22 -139 31 -171 25 -252 2 -252 -73 0 -48 23 -91 78 -145 50 -49
156 -107 195 -107 22 0 25 -6 31 -49 9 -65 42 -129 76 -144 8 -4 31 -17 50
-29 86 -52 213 -3 240 93 6 19 10 48 10 65 0 43 8 47 45 18 48 -36 92 -40 151
-15 54 24 100 78 110 130 10 47 -32 166 -68 194 l-29 23 11 96 c20 181 -21
308 -100 308 -20 0 -43 -11 -69 -35z m94 -1 c41 -42 49 -75 49 -209 0 -108 -3
-135 -18 -157 -21 -33 -15 -47 18 -41 18 4 28 -2 40 -20 39 -58 49 -161 20
-205 -8 -12 -32 -33 -54 -47 -34 -22 -45 -24 -85 -16 -55 10 -88 39 -152 133
-43 63 -47 73 -47 131 -1 127 73 325 151 404 47 48 54 50 78 27z m-530 -371
c55 -9 110 -22 122 -29 12 -8 29 -14 36 -14 42 0 126 -91 177 -190 25 -48 27
-148 5 -191 -35 -66 -121 -87 -200 -49 -70 34 -87 59 -93 140 -4 64 -7 71 -24
67 -11 -3 -31 0 -46 8 -15 7 -53 25 -85 41 -99 48 -183 159 -155 204 27 42 68
44 263 13z"/>
<path d="M2683 4378 c-18 -22 -28 -78 -14 -78 14 0 33 47 29 73 -3 18 -5 18
-15 5z"/>
<path d="M2512 4258 c3 -8 25 -14 57 -16 40 -2 52 0 49 10 -3 8 -25 14 -57 16
-40 2 -52 0 -49 -10z"/>
<path d="M2724 4241 c3 -4 20 -14 37 -21 26 -11 32 -11 39 1 6 8 4 16 -3 21
-17 11 -79 10 -73 -1z"/>
<path d="M2646 4184 c-3 -9 -6 -28 -6 -42 1 -26 1 -26 15 -8 17 22 20 52 6 60
-5 3 -12 -1 -15 -10z"/>
<path d="M6840 2317 c0 -8 14 -40 30 -71 l30 -56 -25 -10 c-15 -6 -34 -10 -44
-10 -9 0 -26 -7 -37 -15 -19 -14 -19 -14 1 -16 26 -2 25 -2 58 6 32 9 37 -11
11 -51 -12 -18 -14 -28 -6 -36 7 -7 18 2 36 31 26 41 46 53 46 27 0 -20 37
-62 46 -53 4 4 -2 28 -14 52 -12 25 -22 47 -22 49 0 2 26 9 58 15 31 6 66 19
77 28 19 14 17 15 -30 8 -84 -12 -90 -12 -97 -8 -4 2 1 21 12 41 22 41 24 52
11 52 -5 0 -19 -16 -31 -35 -12 -19 -25 -35 -30 -35 -4 0 -20 20 -34 44 -29
49 -46 65 -46 43z"/>
<path d="M3803 2202 c-6 -4 -14 -19 -18 -33 -8 -31 13 -52 47 -47 19 2 24 10
26 41 2 20 -1 37 -7 37 -5 0 -15 2 -23 5 -7 3 -18 1 -25 -3z"/>
</g>
</svg>
