<?xml version="1.0" standalone="no"?>
<!DOCTYPE svg PUBLIC "-//W3C//DTD SVG 20010904//EN"
 "http://www.w3.org/TR/2001/REC-SVG-20010904/DTD/svg10.dtd">
<svg version="1.0" xmlns="http://www.w3.org/2000/svg"
 width="1050.000000pt" height="700.000000pt" viewBox="0 0 1050.000000 700.000000"
 preserveAspectRatio="xMidYMid meet">

<g transform="translate(0.000000,700.000000) scale(0.100000,-0.100000)"
fill="#000000" stroke="none">
<path d="M5090 5821 c-747 -249 -1267 -774 -1479 -1491 -127 -431 -130 -836
-10 -1257 152 -529 499 -998 959 -1295 192 -124 548 -307 737 -379 35 -13 63
-26 63 -29 0 -9 -249 -88 -393 -124 -146 -37 -323 -69 -472 -86 -138 -15 -476
-12 -612 5 -261 34 -403 82 -773 260 -295 142 -437 200 -605 249 -295 84 -491
110 -835 111 -395 0 -720 -49 -1095 -165 -201 -62 -485 -174 -472 -186 3 -3
79 23 169 59 312 124 628 207 973 253 184 25 639 26 815 1 254 -36 484 -95
689 -176 53 -21 209 -92 346 -158 344 -165 451 -206 638 -242 456 -88 997 -37
1537 144 l129 43 103 -34 c157 -53 318 -92 478 -115 201 -30 490 -23 690 15
270 51 520 133 820 268 464 209 765 309 1100 368 175 31 537 39 734 16 344
-40 651 -131 954 -282 136 -67 162 -66 37 2 -243 133 -570 237 -910 290 -134
21 -501 30 -635 15 -393 -42 -700 -134 -1220 -363 -332 -146 -531 -218 -748
-269 -380 -88 -738 -83 -1112 17 -145 39 -250 74 -250 83 0 17 185 52 346 66
441 40 781 131 1089 294 517 272 903 766 1046 1341 46 183 35 204 -45 95 -181
-247 -479 -477 -791 -610 -452 -193 -953 -200 -1401 -19 -581 234 -1010 726
-1149 1319 -66 281 -58 607 22 885 105 369 281 659 580 958 84 84 153 157 153
162 0 20 -58 8 -200 -39z m98 -45 c-350 -311 -607 -764 -690 -1216 -31 -168
-31 -458 0 -622 69 -364 239 -690 501 -961 53 -55 128 -125 166 -157 213 -174
495 -315 772 -385 179 -45 482 -58 680 -30 476 68 923 323 1242 708 35 43 66
76 68 74 2 -2 -10 -55 -26 -118 -103 -408 -339 -795 -647 -1060 -355 -305
-814 -488 -1364 -543 -290 -30 -334 -37 -481 -83 -45 -13 -527 218 -796 382
-212 130 -419 312 -576 507 -200 250 -360 568 -437 875 -51 200 -64 317 -64
543 0 213 15 334 65 535 176 706 650 1244 1347 1527 89 36 279 97 305 98 10 0
-16 -29 -65 -74z"/>
</g>
</svg>
