<?xml version="1.0" standalone="no"?>
<!DOCTYPE svg PUBLIC "-//W3C//DTD SVG 20010904//EN"
 "http://www.w3.org/TR/2001/REC-SVG-20010904/DTD/svg10.dtd">
<svg version="1.0" xmlns="http://www.w3.org/2000/svg"
 width="1052.000000pt" height="488.000000pt" viewBox="0 0 1052.000000 488.000000"
 preserveAspectRatio="xMidYMid meet">

<g transform="translate(0.000000,488.000000) scale(0.100000,-0.100000)"
fill="#000000" stroke="none">
<path d="M5150 4776 c-226 -64 -523 -200 -709 -326 -242 -162 -470 -395 -623
-635 -177 -279 -291 -604 -339 -965 -15 -118 -15 -375 0 -495 56 -429 223
-830 480 -1150 193 -240 393 -414 652 -568 141 -83 447 -238 577 -292 61 -26
112 -51 112 -56 0 -18 -344 -118 -545 -158 -253 -51 -311 -56 -605 -55 -295 0
-357 6 -550 54 -141 35 -210 63 -559 225 -457 211 -600 260 -922 316 -175 31
-657 39 -881 15 -262 -28 -507 -81 -763 -163 -189 -61 -441 -163 -403 -163 3
0 91 31 195 69 310 112 550 176 833 222 134 22 173 24 515 24 406 0 436 -3
734 -76 226 -55 356 -105 701 -269 382 -181 482 -216 740 -256 157 -25 551
-25 728 0 234 32 462 84 679 154 l152 49 158 -48 c496 -154 916 -157 1408 -12
171 50 312 104 625 238 290 124 448 184 639 240 511 151 1077 151 1593 1 97
-29 289 -104 423 -166 50 -23 101 -46 115 -51 56 -20 -16 23 -125 76 -137 66
-268 115 -444 165 -289 83 -446 103 -781 104 -204 0 -269 -4 -389 -23 -299
-46 -572 -131 -997 -312 -440 -186 -600 -245 -808 -294 -186 -45 -278 -57
-481 -62 -269 -7 -470 20 -749 103 -118 35 -146 47 -133 60 12 13 143 34 385
64 268 34 470 73 627 121 229 71 445 175 630 304 403 281 707 726 826 1210 30
125 34 155 21 155 -11 0 -57 -50 -119 -130 -176 -223 -519 -466 -808 -571
-220 -79 -365 -108 -593 -116 -198 -7 -329 6 -510 52 -226 58 -388 131 -595
269 -461 307 -770 820 -817 1356 -26 292 17 574 130 862 106 267 231 451 500
737 88 93 160 172 160 175 0 9 -41 5 -90 -8z m50 -12 c0 -4 -63 -72 -140 -151
-267 -273 -421 -519 -534 -850 -82 -242 -91 -300 -91 -603 1 -236 3 -275 22
-355 90 -376 250 -659 531 -944 102 -103 154 -145 264 -218 260 -172 521 -277
785 -315 134 -19 478 -16 583 6 502 103 848 310 1207 720 l52 59 -15 -62 c-47
-204 -106 -361 -201 -541 -101 -189 -210 -335 -370 -492 -270 -267 -585 -440
-1003 -551 -162 -44 -225 -54 -627 -102 -72 -9 -172 -27 -221 -40 -91 -24 -91
-24 -144 -6 -169 59 -609 283 -781 398 -505 337 -842 823 -981 1413 -34 144
-46 267 -46 479 0 214 18 361 65 545 141 551 449 984 925 1299 145 96 381 210
557 268 155 51 163 53 163 43z"/>
</g>
</svg>
