<?xml version="1.0" standalone="no"?>
<!DOCTYPE svg PUBLIC "-//W3C//DTD SVG 20010904//EN"
 "http://www.w3.org/TR/2001/REC-SVG-20010904/DTD/svg10.dtd">
<svg version="1.0" xmlns="http://www.w3.org/2000/svg"
 width="493.000000pt" height="532.000000pt" viewBox="0 0 493.000000 532.000000"
 preserveAspectRatio="xMidYMid meet">

<g transform="translate(0.000000,532.000000) scale(0.100000,-0.100000)"
fill="#6f7a53" stroke="none">
<path d="M3942 5279 c-146 -26 -319 -108 -475 -225 -287 -216 -634 -663 -854
-1103 l-82 -164 -17 44 c-37 90 -135 281 -195 376 -137 218 -258 371 -415 525
-344 337 -691 492 -1059 476 -184 -9 -311 -63 -430 -182 -79 -80 -128 -165
-174 -302 -52 -154 -65 -260 -65 -529 -1 -241 5 -313 45 -555 98 -588 387
-1321 752 -1900 424 -675 1041 -1317 1474 -1534 121 -61 197 -85 304 -96 353
-36 628 158 986 695 424 635 856 1795 998 2680 45 278 50 349 50 670 0 280 -3
323 -23 438 -40 221 -95 358 -185 466 -88 105 -192 171 -322 206 -73 20 -241
27 -313 14z"/>
</g>
</svg>
