<?xml version="1.0" standalone="no"?>
<!DOCTYPE svg PUBLIC "-//W3C//DTD SVG 20010904//EN"
 "http://www.w3.org/TR/2001/REC-SVG-20010904/DTD/svg10.dtd">
<svg version="1.0" xmlns="http://www.w3.org/2000/svg"
 width="228.000000pt" height="222.000000pt" viewBox="0 0 228.000000 222.000000"
 preserveAspectRatio="xMidYMid meet">

<g transform="translate(0.000000,222.000000) scale(0.100000,-0.100000)"
fill="#6f7a53" stroke="none">
<path d="M500 1990 c-183 -29 -321 -132 -399 -300 -100 -215 -74 -459 74 -680
83 -123 132 -175 350 -373 262 -238 461 -433 543 -531 l66 -78 30 38 c50 65
302 318 461 462 342 312 447 427 520 572 57 113 79 202 79 315 0 175 -53 314
-164 426 -127 129 -298 180 -490 145 -182 -33 -310 -130 -405 -308 -33 -62
-34 -62 -44 -36 -37 96 -150 227 -245 283 -95 55 -258 84 -376 65z"/>
</g>
</svg>
