<?xml version="1.0" standalone="no"?>
<!DOCTYPE svg PUBLIC "-//W3C//DTD SVG 20010904//EN"
 "http://www.w3.org/TR/2001/REC-SVG-20010904/DTD/svg10.dtd">
<svg version="1.0" xmlns="http://www.w3.org/2000/svg"
 width="211.000000pt" height="687.000000pt" viewBox="0 0 211.000000 687.000000"
 preserveAspectRatio="xMidYMid meet">

<g transform="translate(0.000000,687.000000) scale(0.100000,-0.100000)"
fill="#6f7a53" stroke="none">
<path d="M925 6760 c-193 -21 -319 -70 -441 -170 -177 -145 -279 -371 -304
-675 -14 -173 -14 -3545 0 -3545 7 0 10 607 10 1760 0 1550 2 1772 16 1865 57
389 239 624 554 716 203 60 568 35 740 -50 179 -89 275 -209 325 -403 43 -171
48 -288 42 -868 -4 -294 -11 -992 -17 -1550 -22 -2206 -31 -2844 -41 -2923
-16 -130 -46 -234 -100 -346 -43 -87 -63 -117 -128 -182 -128 -127 -242 -173
-431 -172 -126 0 -193 17 -302 75 -59 31 -159 125 -204 191 -35 52 -87 168
-109 242 -50 174 -48 75 -74 2895 -12 1190 -11 1202 42 1340 71 184 204 314
376 364 69 20 236 21 310 1 189 -50 314 -191 367 -415 25 -104 28 -448 16
-1585 -6 -500 -9 -912 -6 -914 2 -2 6 -2 8 0 3 3 10 515 17 1138 12 1217 11
1281 -36 1428 -79 250 -258 383 -514 383 -207 0 -375 -89 -486 -256 -41 -62
-91 -182 -106 -256 -7 -34 -11 -226 -10 -533 2 -728 20 -2914 26 -3135 10
-330 31 -443 118 -620 43 -88 64 -118 132 -185 125 -126 254 -178 440 -178
118 0 202 20 296 70 69 35 164 119 213 186 59 81 113 210 146 352 25 105 30
320 50 2190 22 2124 27 2912 19 3034 -30 431 -209 646 -594 715 -103 19 -270
26 -360 16z"/>
<path d="M888 6700 c-258 -32 -477 -199 -572 -434 -36 -92 -65 -207 -77 -311
-6 -59 -9 -692 -7 -1840 l3 -1750 60 0 60 0 6 1810 c3 996 9 1824 13 1840 55
209 98 297 191 391 85 86 165 127 296 154 215 45 486 8 625 -85 124 -81 183
-204 205 -425 10 -109 2 -1672 -16 -2980 -4 -223 -10 -790 -15 -1260 -9 -796
-11 -862 -29 -950 -40 -191 -121 -331 -235 -409 -56 -39 -165 -71 -240 -71
-276 1 -457 217 -495 590 -11 115 -16 501 -32 2465 -12 1442 -14 1382 53 1513
84 167 231 245 417 222 217 -28 312 -195 315 -555 2 -257 -15 -2161 -20 -2182
-4 -22 -2 -23 65 -23 l69 0 7 1138 c4 625 5 1175 1 1222 -19 271 -144 458
-343 514 -259 74 -514 -41 -631 -284 -78 -160 -75 -86 -62 -1630 6 -751 15
-1608 20 -1905 8 -494 10 -548 30 -639 77 -358 272 -553 575 -573 298 -19 524
170 619 520 39 144 45 304 56 1717 6 712 15 1700 21 2194 13 1070 9 1381 -19
1511 -36 162 -97 273 -194 352 -97 78 -164 107 -318 139 -91 18 -309 26 -402
14z"/>
</g>
</svg>
