<?xml version="1.0" encoding="UTF-8"?> <svg xmlns="http://www.w3.org/2000/svg" width="192" height="90" viewBox="0 0 192 90" fill="none"><mask id="mask0_4230_1060" style="mask-type:luminance" maskUnits="userSpaceOnUse" x="0" y="0" width="192" height="90"><path d="M0 0H192V90H0V0Z" fill="white"></path></mask><g mask="url(#mask0_4230_1060)"><path d="M75.5052 3.08331C74.8021 3.08331 74.0625 3.19268 73.2812 3.40622C69.7187 4.40102 67.1927 6.65102 65.776 10.0937C62.7083 17.5364 65.1562 30.1666 72.0104 42.2604C73.0937 44.1771 74.2291 46.0104 75.4062 47.7552C80.5 46.3125 85.1406 44.3021 88.9896 41.4427C99.3177 33.7708 106.844 22.4166 107.719 13.1875C108.083 9.35414 107.24 6.19789 105.271 4.05206C103.115 1.69789 100.74 0.614558 98.2031 0.828099C94.8594 1.10935 91.7448 3.72393 90.1406 6.19268C88.2656 9.0781 87.0937 11.8177 86.2344 13.8177C85.3854 15.7969 85 16.6979 84.4166 16.6354C84.1198 16.6041 84.0885 16.4166 83.8802 15.1979C83.4271 12.5416 82.3646 6.32289 78.6823 3.98435C77.7396 3.38539 76.6771 3.08331 75.5052 3.08331ZM116 26.8021C114.568 26.8021 113.135 27.2708 111.703 28.2083C107.073 31.2552 103.609 38.7969 103.609 43.5C103.609 50.0052 104.932 60.125 112.271 66.1614C122.792 62.2344 134.719 52.8854 137.156 48.8021C138.505 46.5521 138.917 44.3958 138.38 42.401C137.911 40.6719 136.682 39.1198 135.094 38.2448C130.792 35.8802 126.016 39.6146 123.453 41.6198C122.24 42.5677 121.807 42.8906 121.448 42.7812C121.312 42.7396 121.214 42.6458 121.167 42.5052C121.062 42.1875 121.234 41.6458 121.635 40.4479C122.755 37.1041 125.083 30.1458 118.792 27.4062C117.87 27 116.932 26.8021 116 26.8021ZM189.651 90C189.557 90 189.464 89.9531 189.406 89.8698C189.312 89.7291 189.349 89.5468 189.49 89.4531C190.453 88.8073 191.302 86.8541 190.865 84.0989C190.573 82.2187 189.583 79.3594 186.547 76.4219C183.5 73.4791 179.151 71.1875 173.609 69.6198C163.354 66.7083 153.911 68.3802 144.781 70.0052C136.755 71.4271 129.172 72.776 121.385 71.0781C117.802 70.2916 114.714 68.875 112.146 66.8281C108.526 68.1406 105.969 68.4844 104.411 68.5364C98.8802 68.7135 92.8854 66.3489 87.0729 61.6979C82.8646 58.3281 78.8125 53.8125 75.151 48.4427C64.6406 51.3437 52.2969 51.8698 40.9635 52.3541C37.2448 52.5156 33.7291 52.6666 30.4166 52.8958C17.9635 53.7552 9.38019 56.9271 4.90102 62.3281C0.749978 67.3333 1.37498 72.7812 1.60935 74.8281C1.64581 75.1406 1.67185 75.3646 1.67185 75.5156C1.67185 75.6771 1.53644 75.8125 1.37498 75.8125C1.20831 75.8125 1.0781 75.6771 1.0781 75.5156C1.0781 75.401 1.05206 75.1771 1.02081 74.8958C0.776019 72.7812 0.130186 67.1458 4.44269 61.9479C9.03123 56.4166 17.7552 53.1719 30.375 52.2969C33.6927 52.0677 37.2135 51.9166 40.9375 51.7604C52.1719 51.2812 64.3906 50.7552 74.8021 47.9219C73.6562 46.2135 72.5521 44.4219 71.4896 42.5573C64.5521 30.3073 62.0885 17.4739 65.2239 9.86456C66.7135 6.24477 69.375 3.88018 73.125 2.83331C75.3646 2.20831 77.3437 2.42706 79 3.47914C82.9062 5.95831 84 12.3646 84.4687 15.0989C84.5156 15.3802 84.5625 15.6666 84.6041 15.8698C84.875 15.4791 85.2864 14.5208 85.6875 13.5833C86.5052 11.6771 87.7396 8.79164 89.6406 5.86977C91.1979 3.46872 94.3646 0.552057 98.1562 0.234349C100.88 0.00518273 103.422 1.15102 105.708 3.64581C107.792 5.92185 108.693 9.23956 108.312 13.2448C107.422 22.6354 99.7969 34.1562 89.3437 41.9219C85.4791 44.7916 80.8385 46.8177 75.7552 48.276C79.3541 53.5208 83.3229 57.9323 87.4427 61.2291C93.1458 65.7916 99.0052 68.1146 104.391 67.9427C106.599 67.8698 109.057 67.3021 111.62 66.3958C109.208 64.3385 107.281 61.7031 105.854 58.4948C103.995 54.3229 103.016 49.1406 103.016 43.5C103.016 38.6354 106.448 30.9531 111.38 27.7083C113.885 26.0625 116.531 25.7656 119.031 26.8594C125.818 29.8177 123.375 37.125 122.203 40.6354C122.016 41.1927 121.807 41.8073 121.75 42.1302C122.047 41.9635 122.594 41.5364 123.089 41.1458C125.76 39.0573 130.734 35.1666 135.38 37.7239C137.109 38.6719 138.443 40.3646 138.953 42.2448C139.526 44.3698 139.083 46.7448 137.667 49.1094C135.964 51.9583 130.365 56.75 124.057 60.7604C119.589 63.6041 115.844 65.4219 112.802 66.5833C115.104 68.3437 117.969 69.7187 121.516 70.4948C129.187 72.1666 136.708 70.8281 144.677 69.4166C153.875 67.7812 163.385 66.0937 173.771 69.0416C179.406 70.6406 183.844 72.9791 186.958 75.9896C190.115 79.0416 191.146 82.0312 191.453 84.0052C191.865 86.6302 191.208 89.0208 189.818 89.9479C189.766 89.9843 189.708 90 189.651 90Z" fill="#040606"></path></g></svg> 