<?xml version="1.0" encoding="UTF-8"?> <svg xmlns="http://www.w3.org/2000/svg" width="12" height="12" viewBox="0 0 12 12" fill="none"><path d="M5.52 0C2.47429 0 0 2.47429 0 5.52C0 6.49898 0.268485 7.41261 0.71625 8.21016L0.00890625 10.7353C-0.00239422 10.7757 -0.00290482 10.8184 0.00742538 10.8591C0.0177556 10.8997 0.0385657 10.937 0.0677807 10.9671C0.0969958 10.9972 0.133595 11.0191 0.173929 11.0307C0.214264 11.0423 0.256924 11.043 0.297656 11.033L2.93063 10.3805C3.70431 10.7935 4.58222 11.04 5.52 11.04C8.56571 11.04 11.04 8.56571 11.04 5.52C11.04 2.47429 8.56571 0 5.52 0ZM5.52002 0.52002C8.30631 0.52002 10.56 2.73371 10.56 5.52C10.56 8.30629 8.30629 10.56 5.52 10.56C4.62673 10.56 3.79011 10.3271 3.06281 9.92016C3.00962 9.89043 2.94711 9.88205 2.88797 9.89672L0.582187 10.4681L1.20047 8.26219C1.20932 8.23101 1.21176 8.19837 1.20765 8.16623C1.20354 8.13408 1.19297 8.1031 1.17656 8.07516C0.734565 7.32566 0.48 6.45363 0.48 5.52C0.48 2.73371 2.73373 0.52002 5.52002 0.52002ZM3.51422 2.64C3.36037 2.64 3.14065 2.69724 2.96016 2.89172C2.85174 3.00853 2.4 3.44868 2.4 4.2225C2.4 5.02926 2.95953 5.7254 3.02719 5.81484C3.02077 5.80641 3.11353 5.94053 3.23672 6.10078C3.35991 6.26104 3.53218 6.47151 3.74859 6.69937C4.18143 7.1551 4.78999 7.68178 5.54531 8.00391C5.89315 8.15203 6.16756 8.24146 6.37547 8.30672C6.76076 8.4277 7.1117 8.40931 7.37531 8.37047C7.57263 8.34141 7.78965 8.24667 8.00437 8.11078C8.2191 7.97489 8.42954 7.80593 8.52234 7.54922C8.58883 7.36518 8.62262 7.1951 8.63484 7.05516C8.64095 6.98518 8.64173 6.92342 8.63719 6.86625C8.63263 6.80908 8.6375 6.76528 8.58422 6.67781C8.47248 6.49435 8.34594 6.48956 8.21391 6.42422C8.14055 6.38791 7.93168 6.28592 7.72219 6.18609C7.51293 6.08638 7.33174 5.99807 7.22016 5.95828C7.14966 5.93292 7.06357 5.8964 6.93937 5.91047C6.81518 5.92453 6.69251 6.01414 6.62109 6.12C6.5534 6.22034 6.28089 6.542 6.19781 6.63656C6.19781 6.63656 6.20392 6.63921 6.17109 6.62297C6.06834 6.57212 5.94268 6.52888 5.75672 6.43078C5.57076 6.33269 5.33814 6.18783 5.08359 5.96344C4.70473 5.6299 4.43934 5.21067 4.35562 5.07C4.36126 5.06329 4.35495 5.07142 4.36687 5.05969C4.45244 4.97541 4.52874 4.87428 4.59281 4.80047C4.68366 4.69581 4.72375 4.60354 4.76719 4.51734C4.85375 4.34555 4.80555 4.1565 4.75547 4.05703C4.75893 4.06391 4.72838 3.99604 4.69547 3.91828C4.66247 3.8403 4.6204 3.73921 4.57547 3.63141C4.48561 3.4158 4.38529 3.17398 4.32562 3.03234C4.25534 2.86551 4.16025 2.74486 4.03594 2.68687C3.91162 2.62889 3.80179 2.64538 3.79734 2.64516C3.70863 2.64106 3.61081 2.64 3.51422 2.64ZM3.51422 3.12C3.60675 3.12 3.69797 3.12113 3.77437 3.12469C3.85297 3.1286 3.84808 3.12893 3.83297 3.12187C3.81761 3.11471 3.83845 3.11239 3.88312 3.21844C3.94154 3.35712 4.04236 3.59982 4.1325 3.81609C4.17757 3.92423 4.21975 4.02572 4.25344 4.10531C4.28713 4.18491 4.30538 4.22935 4.32656 4.27172L4.32703 4.27266C4.3478 4.31364 4.34596 4.2874 4.33875 4.30172C4.2881 4.40224 4.28123 4.42692 4.23 4.48594C4.152 4.5758 4.07243 4.67602 4.03031 4.7175C3.99347 4.7537 3.92698 4.81009 3.88547 4.92047C3.84389 5.03102 3.8633 5.1827 3.93 5.29594C4.01881 5.4467 4.31146 5.92303 4.76625 6.32344C5.05266 6.57592 5.3195 6.74302 5.53266 6.85547C5.74582 6.96791 5.91943 7.03359 5.95828 7.05281C6.05053 7.09847 6.15136 7.13392 6.26859 7.11984C6.38583 7.10577 6.48691 7.03464 6.55125 6.96187C6.63688 6.86479 6.8918 6.57377 7.01391 6.39469C7.01908 6.39651 7.01739 6.3951 7.05797 6.40969C7.0765 6.41629 7.30903 6.52062 7.51594 6.61922C7.72285 6.71781 7.93285 6.82029 8.00109 6.85406C8.09957 6.9028 8.14611 6.93453 8.15812 6.93469C8.15894 6.9558 8.15976 6.97869 8.15672 7.01344C8.1483 7.10983 8.12254 7.24325 8.07094 7.38609C8.04566 7.45602 7.914 7.60024 7.74797 7.70531C7.58193 7.81039 7.37984 7.8846 7.305 7.89562C7.07997 7.92878 6.8128 7.94089 6.51937 7.84875C6.31592 7.78489 6.06223 7.70222 5.73375 7.56234C5.06755 7.27823 4.50134 6.79476 4.09687 6.36891C3.89464 6.15598 3.73261 5.95776 3.61734 5.80781C3.50229 5.65814 3.45205 5.58025 3.41016 5.52516C3.3358 5.42682 2.88 4.793 2.88 4.2225C2.88 3.61872 3.16044 3.38194 3.31219 3.21844C3.39185 3.1326 3.47895 3.12 3.51422 3.12Z" fill="black"></path></svg> 